HIERARCHY
ROOT Hips
{
	OFFSET -0.001795 -0.223333 0.028219
	CHANNELS 6 Xposition Yposition Zposition Zrotation Yrotation Xrotation 
	JOINT LeftUpLeg
	{
		OFFSET 0.069520 -0.091406 -0.006815
		CHANNELS 3 Zrotation Yrotation Xrotation
		JOINT LeftLeg
		{
			OFFSET 0.034277 -0.375199 -0.004496
			CHANNELS 3 Zrotation Yrotation Xrotation
			JOINT LeftFoot
			{
				OFFSET -0.013596 -0.397961 -0.043693
				CHANNELS 3 Zrotation Yrotation Xrotation
				JOINT LeftToe
				{
					OFFSET 0.026358 -0.055791 0.119288
					CHANNELS 3 Zrotation Yrotation Xrotation
					End Site
					{
						OFFSET 0.000000 0.000000 0.000000
					}
				}
			}
		}
	}
	JOINT RightUpLeg
	{
		OFFSET -0.067670 -0.090522 -0.004320
		CHANNELS 3 Zrotation Yrotation Xrotation
		JOINT RightLeg
		{
			OFFSET -0.038290 -0.382569 -0.008850
			CHANNELS 3 Zrotation Yrotation Xrotation
			JOINT RightFoot
			{
				OFFSET 0.015774 -0.398415 -0.042312
				CHANNELS 3 Zrotation Yrotation Xrotation
				JOINT RightToe
				{
					OFFSET -0.025372 -0.048144 0.123348
					CHANNELS 3 Zrotation Yrotation Xrotation
					End Site
					{
						OFFSET 0.000000 0.000000 0.000000
					}
				}
			}
		}
	}
	JOINT Spine
	{
		OFFSET -0.002533 0.108963 -0.026696
		CHANNELS 3 Zrotation Yrotation Xrotation
		JOINT Spine1
		{
			OFFSET 0.005487 0.135180 0.001092
			CHANNELS 3 Zrotation Yrotation Xrotation
			JOINT Spine2
			{
				OFFSET 0.001457 0.052922 0.025425
				CHANNELS 3 Zrotation Yrotation Xrotation
				JOINT Neck
				{
					OFFSET -0.002778 0.213870 -0.042857
					CHANNELS 3 Zrotation Yrotation Xrotation
					JOINT Head
					{
						OFFSET 0.005152 0.064970 0.051349
						CHANNELS 3 Zrotation Yrotation Xrotation
						End Site
						{
							OFFSET 0.000000 0.000000 0.000000
						}
					}
				}
				JOINT LeftShoulder
				{
					OFFSET 0.078845 0.121749 -0.034090
					CHANNELS 3 Zrotation Yrotation Xrotation
					JOINT LeftArm
					{
						OFFSET 0.090977 0.030469 -0.008868
						CHANNELS 3 Zrotation Yrotation Xrotation
						JOINT LeftForeArm
						{
							OFFSET 0.259612 -0.012772 -0.027456
							CHANNELS 3 Zrotation Yrotation Xrotation
							JOINT LeftHand
							{
								OFFSET 0.249234 0.008986 -0.001171
								CHANNELS 3 Zrotation Yrotation Xrotation
								End Site
								{
									OFFSET 0.000000 0.000000 0.000000
								}
							}
						}
					}
				}
				JOINT RightShoulder
				{
					OFFSET -0.081759 0.118833 -0.038615
					CHANNELS 3 Zrotation Yrotation Xrotation
					JOINT RightArm
					{
						OFFSET -0.096012 0.032551 -0.009143
						CHANNELS 3 Zrotation Yrotation Xrotation
						JOINT RightForeArm
						{
							OFFSET -0.253742 -0.013329 -0.021401
							CHANNELS 3 Zrotation Yrotation Xrotation
							JOINT RightHand
							{
								OFFSET -0.255298 0.007772 -0.005559
								CHANNELS 3 Zrotation Yrotation Xrotation
								End Site
								{
									OFFSET 0.000000 0.000000 0.000000
								}
							}
						}
					}
				}
			}
		}
	}
}
MOTION
Frames: 16
Frame Time: 0.050000
0.000000 0.951452 0.000000 -0.650525 -3.134382 2.035420 6.058556 -0.132051 -1.895734 -5.289717 0.629257 0.802475 8.524366 17.936693 10.753623 0.000000 0.000000 0.000000 -3.023732 0.412618 -4.241515 4.019556 -0.369529 3.647837 -5.528495 -15.324125 9.935077 0.000000 0.000000 0.000000 -0.763619 -0.106270 3.470231 4.232051 -0.642153 -21.294696 -0.867536 -0.175066 28.427987 2.006435 -0.055199 -24.809211 0.000000 0.000000 0.000000 -20.948983 1.428714 -1.330480 -52.312689 -7.827962 -5.484446 -71.450139 -65.272744 56.772857 0.000000 0.000000 0.000000 13.355997 3.522081 0.676604 57.869829 10.113276 -3.466111 59.132857 68.938177 47.206231 0.000000 0.000000 0.000000 
0.001137 0.951436 -0.000255 -1.206720 -2.978211 2.567591 6.714093 -0.128313 -1.622968 -5.694867 0.661887 -0.008255 8.921026 18.565590 9.501301 0.000000 0.000000 0.000000 -2.571893 0.415198 -4.220994 4.022114 -0.373879 3.265907 -5.694846 -15.642086 10.077716 0.000000 0.000000 0.000000 -0.804894 -0.066106 2.337904 4.322805 -0.679037 -21.020366 -0.672202 -0.836292 28.787876 2.373303 -0.352332 -25.149587 0.000000 0.000000 0.000000 -21.239136 2.748405 -1.950330 -52.027017 -8.501266 -5.272107 -77.510430 -63.823683 60.978130 0.000000 0.000000 0.000000 12.416623 3.021993 0.410141 58.288901 8.619143 -4.293543 69.085238 68.394999 54.777582 0.000000 0.000000 0.000000 
0.002138 0.951369 -0.000489 -1.026753 -3.400439 2.359763 6.473158 -0.121859 -1.676109 -5.653225 0.680321 0.919211 9.360220 19.264344 9.944935 0.000000 0.000000 0.000000 -2.739644 0.449506 -4.667535 3.518201 -0.294473 4.240410 -5.650677 -15.621259 10.283236 0.000000 0.000000 0.000000 -0.649279 -0.060134 1.993430 4.675977 -0.793102 -20.861317 -1.287124 -0.485051 29.010678 2.533974 -0.507606 -24.181350 0.000000 0.000000 0.000000 -21.906453 3.184295 -2.273102 -51.091067 -8.268670 -5.341415 -76.959040 -63.625247 60.174378 0.000000 0.000000 0.000000 13.700227 2.960893 0.305329 57.956026 8.517355 -4.314329 63.450451 68.366081 50.033822 0.000000 0.000000 0.000000 
0.002870 0.951399 -0.000409 -1.045808 -3.431884 2.511254 6.558984 -0.133428 -1.983073 -5.704942 0.689189 1.027784 9.638497 19.704211 10.212075 0.000000 0.000000 0.000000 -2.757533 0.466906 -4.878997 3.554367 -0.294729 4.556218 -5.888750 -16.052797 10.184982 0.000000 0.000000 0.000000 -1.061741 -0.019042 1.173025 5.273048 -0.990743 -20.346934 -1.361922 -1.090088 28.955223 2.513710 -0.627765 -23.811280 0.000000 0.000000 0.000000 -22.588117 3.944635 -2.615402 -51.037976 -8.034974 -5.451162 -76.590504 -63.224561 59.698584 0.000000 0.000000 0.000000 12.870021 3.242326 0.381209 58.221793 7.740202 -4.715949 69.189742 68.123980 54.294453 0.000000 0.000000 0.000000 
0.003572 0.951548 0.000227 -1.051413 -3.573568 2.334080 5.920673 -0.126782 -1.775538 -4.754056 0.571562 1.245886 9.428017 19.366913 9.922836 0.000000 0.000000 0.000000 -2.696394 0.466178 -4.873578 3.035111 -0.222243 4.577255 -5.502859 -15.399983 10.539144 0.000000 0.000000 0.000000 -0.949735 -0.022366 1.159690 5.402827 -1.065479 -19.898832 -1.507256 -1.017628 28.733843 2.394840 -0.591284 -23.281934 0.000000 0.000000 0.000000 -22.620469 3.695350 -2.470738 -50.789088 -7.700258 -5.543681 -77.157523 -63.481582 60.369938 0.000000 0.000000 0.000000 13.271034 2.926097 0.187414 58.142040 7.438101 -4.817957 68.345140 67.503984 52.968614 0.000000 0.000000 0.000000 
0.004052 0.951537 0.001511 -1.013634 -3.563596 2.372430 5.622933 -0.124928 -1.654738 -4.689290 0.561282 1.081841 9.350081 19.249356 9.330733 0.000000 0.000000 0.000000 -2.718526 0.450540 -4.671188 2.753520 -0.187147 4.415061 -5.214285 -14.845478 10.403880 0.000000 0.000000 0.000000 -1.102878 -0.002809 0.686413 5.468253 -1.056934 -20.222951 -1.409792 -1.418456 29.253971 2.127490 -0.497936 -23.370579 0.000000 0.000000 0.000000 -22.646687 3.907026 -2.460769 -50.839323 -7.276766 -5.790120 -77.343645 -63.027020 60.329359 0.000000 0.000000 0.000000 12.856754 3.259174 0.313743 57.992051 6.706370 -5.224706 69.501173 67.751860 53.980610 0.000000 0.000000 0.000000 
0.004276 0.951418 0.003337 -1.096872 -3.574009 2.248735 5.422237 -0.102685 -1.165012 -4.315596 0.511119 0.715250 9.486251 19.465152 9.864093 0.000000 0.000000 0.000000 -2.579124 0.441735 -4.560480 2.550202 -0.156251 4.572153 -5.072587 -14.574353 10.346002 0.000000 0.000000 0.000000 -0.946451 -0.001680 0.529635 5.554087 -1.092360 -20.091483 -1.478662 -1.418820 29.120150 2.370267 -0.658177 -23.211796 0.000000 0.000000 0.000000 -22.799285 3.726267 -2.362460 -50.704304 -6.590827 -6.047620 -77.441521 -62.908316 60.254538 0.000000 0.000000 0.000000 13.066332 3.070934 0.202034 57.740752 5.947314 -5.547008 70.975536 67.716488 55.127906 0.000000 0.000000 0.000000 
0.004349 0.951341 0.005347 -1.124979 -3.548666 2.297550 5.317695 -0.094010 -0.947304 -4.181051 0.491983 0.323881 9.421547 19.368059 9.470655 0.000000 0.000000 0.000000 -2.410506 0.420363 -4.283459 2.409336 -0.139220 4.482252 -4.838408 -14.084604 10.047366 0.000000 0.000000 0.000000 -0.934325 0.006172 0.294964 5.620144 -1.099948 -20.211736 -1.543486 -1.559361 29.162198 2.348814 -0.667242 -23.209009 0.000000 0.000000 0.000000 -22.833101 3.551591 -2.217334 -50.352121 -6.285457 -6.154217 -77.180167 -63.157154 60.274747 0.000000 0.000000 0.000000 13.089981 3.007540 0.146460 57.271122 5.458928 -5.738621 74.101135 67.973718 57.918072 0.000000 0.000000 0.000000 
0.004300 0.951431 0.007246 -1.133433 -3.329620 2.419092 5.234079 -0.095994 -0.898841 -4.001771 0.466721 -0.070917 9.219218 19.044369 9.649073 0.000000 0.000000 0.000000 -2.273362 0.400791 -4.039270 2.233308 -0.120291 4.345682 -4.711669 -13.799363 9.884886 0.000000 0.000000 0.000000 -0.933201 0.020930 -0.127858 5.667528 -1.130405 -19.935500 -1.602574 -1.803919 29.020849 2.297008 -0.646072 -23.270792 0.000000 0.000000 0.000000 -22.683780 3.452017 -2.123215 -50.378126 -6.079037 -6.225399 -76.332927 -63.746203 60.117620 0.000000 0.000000 0.000000 13.087230 3.043757 0.141480 56.844097 5.434536 -5.692049 76.918269 69.045078 61.292456 0.000000 0.000000 0.000000 
0.004240 0.951624 0.008886 -1.184649 -2.928395 2.477768 5.341867 -0.101098 -0.886143 -3.979507 0.459412 -0.333028 9.104474 18.868897 9.537089 0.000000 0.000000 0.000000 -2.122507 0.377206 -3.761122 2.276924 -0.136788 4.030417 -4.821496 -14.017370 10.152485 0.000000 0.000000 0.000000 -1.166355 0.023410 -0.085341 5.855992 -1.144122 -20.299642 -1.528288 -1.966292 29.120445 2.088635 -0.478219 -23.635217 0.000000 0.000000 0.000000 -22.359248 3.523797 -2.174430 -50.576581 -6.063658 -6.234394 -75.624406 -63.771893 59.508445 0.000000 0.000000 0.000000 12.968828 2.907031 0.104979 55.921803 5.637233 -5.519834 81.168307 70.682981 66.719807 0.000000 0.000000 0.000000 
0.004098 0.951746 0.010212 -1.161252 -2.207033 2.698690 5.466082 -0.126612 -1.194329 -4.145744 0.471003 -0.362883 8.957014 18.653063 9.484800 0.000000 0.000000 0.000000 -1.938278 0.355292 -3.509152 2.209144 -0.144182 3.545935 -5.133944 -14.562361 10.282192 0.000000 0.000000 0.000000 -1.373211 0.032115 -0.239133 5.946546 -1.155946 -20.264602 -1.577807 -2.245870 29.119350 1.912741 -0.332096 -23.812501 0.000000 0.000000 0.000000 -22.189039 3.490066 -2.196005 -50.629359 -6.034566 -6.237803 -75.190024 -64.298048 59.558669 0.000000 0.000000 0.000000 12.886979 2.810624 0.100306 55.156906 6.430073 -5.090226 88.917467 72.580523 76.055359 0.000000 0.000000 0.000000 
0.003859 0.951900 0.011348 -1.135814 -1.687607 2.846438 5.613564 -0.139539 -1.293989 -4.228125 0.474322 -0.437767 8.634804 18.147729 9.531862 0.000000 0.000000 0.000000 -1.757163 0.342928 -3.374756 2.371705 -0.174868 3.279994 -5.616273 -15.444230 10.447401 0.000000 0.000000 0.000000 -1.722544 0.033627 -0.068253 5.948072 -1.131261 -20.449910 -1.382482 -2.147989 29.103108 1.904408 -0.234836 -24.108523 0.000000 0.000000 0.000000 -21.625042 3.789909 -2.463102 -51.024063 -6.245013 -6.146292 -74.421527 -64.353672 58.818778 0.000000 0.000000 0.000000 12.582443 2.708469 0.155851 54.350885 8.460956 -4.132792 99.944631 75.363029 90.343126 0.000000 0.000000 0.000000 
0.003528 0.952287 0.012317 -1.093743 -1.198506 3.005262 5.748438 -0.147923 -1.284121 -4.327586 0.477502 -1.013356 8.265775 17.574105 9.629817 0.000000 0.000000 0.000000 -1.672906 0.326893 -3.192578 2.376063 -0.188185 2.814547 -5.760124 -15.692405 10.632630 0.000000 0.000000 0.000000 -1.995314 0.038624 -0.048649 5.877996 -1.089660 -20.597993 -1.257709 -1.857226 29.148753 1.718739 -0.013982 -24.227412 0.000000 0.000000 0.000000 -20.892400 3.856717 -2.615754 -51.579740 -6.320099 -6.116635 -73.509673 -64.847327 58.285302 0.000000 0.000000 0.000000 12.236229 2.950557 0.403125 53.137570 11.560355 -2.735057 120.125461 78.779395 115.941878 0.000000 0.000000 0.000000 
0.003184 0.952718 0.013227 -1.051275 -0.969589 2.988099 5.829386 -0.145820 -1.154043 -4.396355 0.481435 -1.145354 7.834208 16.898931 9.888855 0.000000 0.000000 0.000000 -1.697683 0.306430 -2.957713 2.428207 -0.201414 2.560206 -5.997901 -16.127944 10.756533 0.000000 0.000000 0.000000 -2.247869 0.039897 0.087122 5.759653 -1.053630 -20.594996 -0.933611 -1.067700 28.938202 1.848784 0.105275 -24.669471 0.000000 0.000000 0.000000 -20.459948 3.848721 -2.844361 -51.901407 -6.405020 -6.023184 -70.314625 -64.991585 55.267461 0.000000 0.000000 0.000000 11.564757 3.831652 0.999666 51.385516 16.762498 -0.485210 160.733936 82.215114 165.040504 0.000000 0.000000 0.000000 
0.002989 0.953679 0.014049 -1.012571 -1.042354 2.883945 5.788868 -0.131807 -0.874150 -4.466449 0.487323 -1.566256 7.729046 16.714562 9.678576 0.000000 0.000000 0.000000 -1.783505 0.291544 -2.779446 2.286479 -0.187289 2.363619 -5.531314 -15.238451 10.495868 0.000000 0.000000 0.000000 -2.410488 0.039996 0.203174 5.426680 -0.946200 -20.845437 -0.513433 0.342991 28.931010 2.684689 -0.161703 -24.667633 0.000000 0.000000 0.000000 -18.994468 3.367838 -2.772643 -52.537544 -6.379681 -6.028540 -66.922428 -64.937378 51.906158 0.000000 0.000000 0.000000 10.568046 5.231355 1.868187 47.333601 23.819039 2.143464 -130.748013 80.650854 -115.508443 0.000000 0.000000 0.000000 
0.003035 0.954369 0.014904 -0.978893 -1.217394 2.636595 5.909678 -0.113310 -0.531900 -4.607272 0.502815 -1.658564 7.456307 16.290574 10.055100 0.000000 0.000000 0.000000 -1.608618 0.268689 -2.538766 2.107714 -0.164602 2.351213 -5.639989 -15.471055 10.657653 0.000000 0.000000 0.000000 -2.107472 0.025936 0.477306 4.744208 -0.766944 -20.859521 -0.245890 1.732955 28.650909 3.318048 -0.318795 -24.640639 0.000000 0.000000 0.000000 -18.982310 3.118917 -2.964765 -52.047477 -6.393975 -5.895568 -61.162393 -64.395310 46.239584 0.000000 0.000000 0.000000 8.605863 7.070623 2.808446 41.535999 31.818820 4.382913 -97.838356 71.002257 -70.929674 0.000000 0.000000 0.000000 
